<svg data-v-0dd9719b="" version="1.0" xmlns="http://www.w3.org/2000/svg" xmlns:xlink="http://www.w3.org/1999/xlink" width="100%" height="100%" viewBox="0 0 340.000000 250.000000" preserveAspectRatio="xMidYMid meet" color-interpolation-filters="sRGB" style="margin: auto;"> <rect data-v-0dd9719b="" x="0" y="0" width="100%" height="100%" fill="#fff" fill-opacity="1" class="background"></rect> <rect data-v-0dd9719b="" x="0" y="0" width="100%" height="100%" fill="url(#watermark)" fill-opacity="1" class="watermarklayer"></rect> <g data-v-0dd9719b="" fill="#fb4e00" class="icon-text-wrapper icon-svg-group iconsvg" transform="translate(47.860107421875,90.13249588012695)"><g class="iconsvg-imagesvg" transform="translate(0,0)"><g><rect fill="#fb4e00" fill-opacity="0" stroke-width="2" x="0" y="0" width="60" height="69.73500697350069" class="image-rect"></rect> <svg x="0" y="0" width="60" height="69.73500697350069" filtersec="colorsb716017562" class="image-svg-svg primary" style="overflow: visible;"><svg xmlns="http://www.w3.org/2000/svg" viewBox="-0.0030908584594726562 -0.002895355224609375 146.2463836669922 169.9757843017578"><title>资源 102</title><g><g><path d="M43.26 47.68c-12.24 0-24.5-.3-36.73.13C1 48-.33 46.11.06 41 .51 35.3 0 29.52.31 23.79 1.47 4.48 20.49-6.07 37.14 3.7c15.28 9 30 18.82 45.21 28 5.89 3.56 3.72 8.93 3.34 13.4-.42 4.92-5.22 2.41-8 2.48-11.44.27-22.93.1-34.43.1zM53.34 156.45c0-23.64-.09-45.55 0-67.45 0-6.44-2.73-14.62 1.25-18.84s12.26-1.28 18.64-1.4C86 68.53 86 68.69 86 81.13v49.43c0 3.08-.07 5.69-3.3 7.61-9.4 5.59-18.6 11.54-29.36 18.28z" fill="#fb4e00"></path><path d="M107.46 47.24c11 7.2 21.82 13 31.11 20.71 10.69 8.83 10.06 26.47-.95 35.06-9.16 7.16-19.47 12.85-30.16 19.77zM33 146.2c0 5.51-.39 11.05.11 16.5s-2.2 6.84-6.86 7.19A23.84 23.84 0 0 1 .57 148.77c-.78-7.43-.25-15-.44-22.49-.07-2.79.82-4.08 3.81-4q12.39.18 24.77 0c3.27 0 4.37 1.28 4.29 4.45-.15 6.46 0 12.97 0 19.47z" fill="#fb4f00"></path><path d="M.15 84.29c0-15.6 0-15.6 15.37-15.6C33 68.69 33 68.69 33 86c0 15.23 0 15.23-15.1 15.23h-.74C.15 101.27.15 101.27.15 84.29z" fill="#fa4e00"></path></g></g></svg></svg> <!----></g></g> <g transform="translate(67,6.09625244140625)"><g data-gra="path-name" fill-rule="" class="tp-name iconsvg-namesvg" transform="translate(0,0)"><g transform="scale(1)"><g><path d="M36.04-30.19L36.04-30.19 9.18-30.19Q9.54-25.05 6.42-22.81L6.42-22.81Q5.32-21.93 3.87-22.19 2.42-22.46 1.89-23.73L1.89-23.73Q1.49-24.87 1.98-25.86 2.46-26.85 3.56-27.47L3.56-27.47Q5.14-28.3 6.39-30.15 7.65-31.99 7.69-34.15L7.69-34.15 8.31-34.15Q8.88-32.34 9.01-31.51L9.01-31.51 19.78-31.51 19.78-38.23 26.85-37.66Q26.72-36.61 25.18-36.39L25.18-36.39 25.18-31.51 35.77-31.51 38.63-34.28 43.46-29.66Q43.02-29.22 41.7-29.09L41.7-29.09Q38.54-25.93 34.76-23.64L34.76-23.64 34.32-23.91Q35.33-26.98 36.04-30.19ZM2.5-20.39L34.94-20.39 37.97-24.35Q41.4-21.67 43.51-19.82L43.51-19.82Q43.29-19.07 42.23-19.07L42.23-19.07 25.36-19.07 25.36-2.68Q25.36 0.44 23.82 2.07 22.28 3.69 17.71 4L17.71 4Q17.49 1.1 16.48 0.04L16.48 0.04Q14.99-1.32 11.6-1.85L11.6-1.85 11.6-2.42Q17.53-2.02 18.72-2.02L18.72-2.02Q19.78-2.02 19.78-2.9L19.78-2.9 19.78-19.07 2.94-19.07 2.5-20.39ZM49.39-37.4L49.39-37.4 49.75-37.71Q55.94-37.18 57.61-34.19L57.61-34.19Q58.58-32.43 57.44-30.98L57.44-30.98Q56.25-29.53 54.32-30.28L54.32-30.28Q53.96-30.41 53.57-30.63L53.57-30.63Q52.69-33.84 49.39-37.4ZM46.14-27.42L46.14-27.42 46.54-27.73Q52.21-26.98 53.57-24.13L53.57-24.13Q54.45-22.37 53.26-21.05L53.26-21.05Q52.03-19.69 50.23-20.48L50.23-20.48Q49.83-20.65 49.44-20.96L49.44-20.96Q49.26-22.59 48.32-24.37 47.37-26.15 46.14-27.42ZM59.46-31.42L59.46-31.42 60.16-31.25Q55.81-16.66 54.76-12.26L54.76-12.26Q54.1-9.36 54.14-7.87L54.14-7.87Q54.14-6.94 55.06-4.5 55.99-2.07 55.9 0.22L55.9 0.22Q55.81 1.93 54.8 2.97 53.79 4 52.16 4L52.16 4Q50.32 4 49.83 1.63L49.83 1.63Q50.45-1.93 50.32-4.7 50.19-7.47 49.35-8.04L49.35-8.04Q48.47-8.66 47.02-8.79L47.02-8.79 47.02-9.62 49.04-9.62Q49.44-9.62 49.59-9.67 49.75-9.71 49.97-9.91 50.19-10.11 50.41-10.59L50.41-10.59Q51.59-12.96 59.46-31.42ZM79.54-19.12L79.54-19.12 69.04-19.12Q70.84-13.23 74.97-9.05L74.97-9.05Q78-13.58 79.54-19.12ZM71.41-29.36L66.36-29.36 66.36-20.39 71.41-20.39 71.41-29.36ZM79.32-20.39L82.22-23.16 86.84-18.9Q86.48-18.33 84.95-18.19L84.95-18.19Q82.49-11.03 78.13-6.28L78.13-6.28Q82.75-2.9 89.38-0.83L89.38-0.83 89.3-0.35Q85.87 0.13 84.55 3.96L84.55 3.96Q78.57 0.88 75.01-3.38L75.01-3.38Q68.95 1.67 59.46 4.04L59.46 4.04 59.15 3.47Q67.63 0 72.91-6.28L72.91-6.28Q69.7-11.43 68.16-19.12L68.16-19.12 66.31-19.12Q66.23-15.91 65.83-13.16 65.43-10.42 64.49-7.19 63.54-3.96 61.57-1.05 59.59 1.85 56.69 4.09L56.69 4.09 56.21 3.74Q59.41-1.41 60.4-7.51 61.39-13.62 61.39-21.45L61.39-21.45 61.39-32.7 67.15-30.59 71.41-30.59 71.41-38.01 78.35-37.44Q78.22-36.25 76.42-35.99L76.42-35.99 76.42-30.59 81.34-30.59 84.02-33.27 88.59-28.83Q88.11-28.34 86.84-28.3L86.84-28.3Q83.8-25.36 81.17-23.33L81.17-23.33 80.73-23.64Q81.47-27.99 81.69-29.36L81.69-29.36 76.42-29.36 76.42-20.39 79.32-20.39ZM94.22-10.42L122.56-10.42 125.64-14.19Q129.02-11.65 131.13-9.8L131.13-9.8Q130.96-9.1 129.86-9.1L129.86-9.1 109.25-9.1 113.55-6.68Q113.12-5.84 111.84-6.15L111.84-6.15Q108.06-3.56 101.6-1.23L101.6-1.23Q109.42-1.36 120.85-1.85L120.85-1.85Q118.65-4.53 115.93-7.16L115.93-7.16 116.37-7.51Q124.63-5.67 127.44-1.45L127.44-1.45Q129.07 0.97 128.06 2.77L128.06 2.77Q127.22 4.31 125.33 3.82L125.33 3.82Q124.89 3.74 124.41 3.47L124.41 3.47Q123.57 1.58 121.77-0.7L121.77-0.7Q112.76 1.19 99.36 3.34L99.36 3.34Q98.88 3.87 98.35 4.09L98.35 4.09 96.28-1.36Q97.29-1.49 97.78-1.71L97.78-1.71Q100.02-2.55 102.74-4.77 105.47-6.99 107.18-9.1L107.18-9.1 94.61-9.1 94.22-10.42ZM102.79-16.96L114.96-16.96 117.69-20.3Q120.72-18.06 122.61-16.39L122.61-16.39Q122.39-15.64 121.38-15.64L121.38-15.64 103.14-15.64 102.79-16.96ZM114.83-26.46L114.83-26.46 114.74-26.37Q118.08-23.95 123.42-22.35 128.76-20.74 133.77-20.3L133.77-20.3 133.68-19.64Q130.87-18.11 130.47-14.99L130.47-14.99Q125.68-16.35 121.29-19.07 116.89-21.8 113.86-25.36L113.86-25.36Q106.17-16.83 91.45-14.15L91.45-14.15 91.23-14.81Q96.86-16.88 102.08-20.94 107.31-25 110.61-30.41L110.61-30.41 116.89-26.98Q116.46-26.02 114.83-26.46ZM123.13-32.56L126.12-32.56 128.94-36.34Q132.19-33.75 134.03-31.99L134.03-31.99Q133.9-31.29 132.8-31.29L132.8-31.29 123.13-31.29 123.13-27.38Q123.13-27.11 122.5-26.83 121.86-26.54 120.74-26.35 119.62-26.15 118.43-26.15L118.43-26.15 117.55-26.15 117.55-31.29 107.18-31.29 107.18-27.11Q107.18-26.72 105.75-26.32 104.33-25.93 102.61-25.93L102.61-25.93 101.73-25.93 101.73-31.29 91.36-31.29 91.05-32.56 101.73-32.56 101.73-38.5 108.76-37.88Q108.68-36.91 107.18-36.69L107.18-36.69 107.18-32.56 117.55-32.56 117.55-38.5 124.63-37.88Q124.54-36.91 123.13-36.69L123.13-36.69 123.13-32.56ZM155.39-26.24L155.39-30.01 147.74-30.01 147.74-26.24 155.39-26.24ZM147.74-21.05L155.39-21.05 155.39-24.92 147.74-24.92 147.74-21.05ZM147.74-15.73L155.39-15.73 155.39-19.82 147.74-19.82 147.74-15.73ZM143.48-11.6L142.51-11.6 142.51-26.41Q139.75-24.48 136.41-23.03L136.41-23.03 135.97-23.51Q138.82-26.06 141.5-30.04 144.18-34.01 145.9-38.41L145.9-38.41 152.49-35.24Q152.05-34.32 150.64-34.54L150.64-34.54Q149.9-33.44 148.18-31.42L148.18-31.42 148.36-31.33 155.83-31.33Q157.1-35.11 157.54-38.1L157.54-38.1 164.66-35.46Q164.27-34.63 162.99-34.76L162.99-34.76Q160.27-32.92 157.15-31.33L157.15-31.33 167.52-31.33 170.2-34.85Q173.23-32.43 175.03-30.72L175.03-30.72Q174.86-30.01 173.85-30.01L173.85-30.01 160.8-30.01 160.8-26.24 167.12-26.24 169.72-29.49Q172.57-27.29 174.29-25.66L174.29-25.66Q174.07-24.92 173.06-24.92L173.06-24.92 160.8-24.92 160.8-21.05 167.12-21.05 169.72-24.35Q172.57-22.1 174.33-20.52L174.33-20.52Q174.16-19.82 173.06-19.82L173.06-19.82 160.8-19.82 160.8-15.73 167.87-15.73 170.64-19.16Q173.8-16.88 175.65-15.16L175.65-15.16Q175.47-14.46 174.42-14.46L174.42-14.46 147.74-14.46 147.74-13.18Q147.74-12.96 147.26-12.61 146.78-12.26 145.72-11.93 144.67-11.6 143.48-11.6L143.48-11.6ZM177.32-8.88L177.32-8.88 161.46-8.88Q164.49-6.64 169.32-5.08 174.16-3.52 178.99-2.99L178.99-2.99 178.95-2.42Q175.69-1.54 174.95 2.42L174.95 2.42Q164.97-0.83 160.09-8.79L160.09-8.79 160.09 2.68Q160.09 2.9 159.41 3.21 158.73 3.52 157.65 3.76 156.58 4 155.61 4L155.61 4 154.6 4 154.6-5.67Q147.96-0.26 136.23 2.59L136.23 2.59 135.97 2.02Q140.32 0.13 144.07-2.77 147.83-5.67 150.34-8.88L150.34-8.88 137.02-8.88 136.67-10.11 154.6-10.11 154.6-14.02 161.59-13.45Q161.41-12.52 160.09-12.3L160.09-12.3 160.09-10.11 170.82-10.11 173.58-13.75Q176.66-11.29 178.55-9.58L178.55-9.58Q178.37-8.88 177.32-8.88Z" transform="translate(-1.7102247476577759, 38.5)"></path></g> <!----> <!----> <!----> <!----> <!----> <!----> <!----></g></g> <g data-gra="path-slogan" fill-rule="" class="tp-slogan iconsvg-slogansvg" fill="#fb4e00" transform="translate(5,48.59000015258789)"><rect x="0" height="1" y="3.9750003814697266" width="41.40489196777344"></rect> <rect height="1" y="3.9750003814697266" width="41.40489196777344" x="125.87489318847656"></rect> <g transform="translate(44.40489196777344,0)"><g transform="scale(1)"><path d="M2.30-8.58L6.61-1.64L6.61-8.58L7.73-8.58L7.73 0L6.42 0L2.06-6.94L2.02-6.94L2.02 0L0.89 0L0.89-8.58L2.30-8.58ZM9.70-8.58L10.88-8.58L10.88 0L9.70 0L9.70-8.58ZM14.25-8.58L18.56-1.64L18.56-8.58L19.69-8.58L19.69 0L18.38 0L14.02-6.94L13.97-6.94L13.97 0L12.84 0L12.84-8.58L14.25-8.58ZM27.89-3.61L25.27-3.61L25.27-4.59L29.02-4.59L29.02 0L28.27 0L27.98-1.08Q27 0.09 25.17 0.14L25.17 0.14Q23.44 0.14 22.50-0.75L22.50-0.75Q21.09-2.06 21.14-4.36L21.14-4.36Q21.47-8.63 25.22-8.81L25.22-8.81Q28.41-8.63 28.88-6L28.88-6L27.75-6Q27.28-7.78 25.17-7.83L25.17-7.83Q22.50-7.64 22.36-4.31L22.36-4.31Q22.36-0.75 25.22-0.75L25.22-0.75Q26.25-0.75 27-1.31L27-1.31Q27.94-2.06 27.89-3.61L27.89-3.61ZM34.03-7.64L31.97-7.64L31.97-4.97L34.03-4.97Q35.86-4.92 35.81-6.38L35.81-6.38Q35.81-7.64 34.03-7.64L34.03-7.64ZM34.50 0L30.80 0L30.80-8.58L34.59-8.58Q36.89-8.48 36.98-6.42L36.98-6.42Q36.98-5.16 35.86-4.64L35.86-4.64Q37.45-4.08 37.45-2.53L37.45-2.53Q37.31-0.09 34.50 0L34.50 0ZM34.22-3.98L31.97-3.98L31.97-0.98L34.45-0.98Q36.23-1.03 36.28-2.53L36.28-2.53Q36.28-3.98 34.22-3.98L34.22-3.98ZM45.56-4.27L45.56-4.27Q45.38-7.64 42.56-7.83L42.56-7.83Q39.70-7.69 39.56-4.27L39.56-4.27Q39.70-0.94 42.56-0.80L42.56-0.80Q45.38-0.98 45.56-4.27ZM46.73-4.27L46.73-4.27Q46.45 0 42.56 0.14L42.56 0.14Q38.63 0 38.34-4.27L38.34-4.27Q38.58-8.72 42.56-8.81L42.56-8.81Q46.45-8.67 46.73-4.27ZM52.59-5.06L57.09-5.06L57.09-8.58L58.27-8.58L58.27 0L57.09 0L57.09-3.98L52.59-3.98L52.59 0L51.42 0L51.42-8.58L52.59-8.58L52.59-5.06ZM65.72-3.19L65.72-8.58L66.89-8.58L66.89-3.05Q66.75 0.05 63.38 0.14L63.38 0.14Q60.23 0.05 60.09-2.86L60.09-2.86L60.09-8.58L61.27-8.58L61.27-3.19Q61.31-0.84 63.42-0.80L63.42-0.80Q65.72-0.84 65.72-3.19L65.72-3.19ZM68.86-8.58L70.03-8.58L70.03 0L68.86 0L68.86-8.58ZM71.30-1.92L71.30-2.77L72.38-2.77L72.38-2.16Q72.38-0.75 73.69-0.75L73.69-0.75Q75.05-0.75 75.05-2.25L75.05-2.25L75.05-8.58L76.22-8.58L76.22-2.30Q76.17 0.09 73.73 0.14L73.73 0.14Q71.44 0.09 71.30-1.92L71.30-1.92ZM78.19-8.58L79.36-8.58L79.36 0L78.19 0L78.19-8.58Z" transform="translate(-0.890625, 8.8125)"></path></g></g></g></g></g><defs v-gra="od"></defs></svg>